<?xml version="1.0" encoding="UTF-8" standalone="no"?>
<svg
   xmlns:dc="http://purl.org/dc/elements/1.1/"
   xmlns:cc="http://creativecommons.org/ns#"
   xmlns:rdf="http://www.w3.org/1999/02/22-rdf-syntax-ns#"
   xmlns:svg="http://www.w3.org/2000/svg"
   xmlns="http://www.w3.org/2000/svg"
   xmlns:sodipodi="http://sodipodi.sourceforge.net/DTD/sodipodi-0.dtd"
   xmlns:inkscape="http://www.inkscape.org/namespaces/inkscape"
   version="1.1"
   viewBox="-150.70865773333333 -494.0099879242 764.3980915509333 989.9999757999999"
   id="svg2"
   width="215.7301333333333mm"
   height="279.4mm"
   sodipodi:docname="CalibrationImageDocument.svg"
   inkscape:version="0.92.3 (2405546, 2018-03-11)">
  <metadata
     id="metadata23">
    <rdf:RDF>
      <cc:Work
         rdf:about="">
        <dc:format>image/svg+xml</dc:format>
        <dc:type
           rdf:resource="http://purl.org/dc/dcmitype/StillImage" />
        <dc:title></dc:title>
      </cc:Work>
    </rdf:RDF>
  </metadata>
  <defs
     id="defs4" />
  <sodipodi:namedview
     id="base"
     pagecolor="#ffffff"
     bordercolor="#666666"
     borderopacity="1.0"
     inkscape:pageopacity="0.0"
     inkscape:pageshadow="2"
     inkscape:document-units="mm"
     inkscape:current-layer="layer1"
     showgrid="false"
     inkscape:zoom="0.63211062"
     inkscape:cx="266.71893"
     inkscape:cy="476.95372"
     inkscape:window-width="1200"
     inkscape:window-height="1892"
     inkscape:window-x="1200"
     inkscape:window-y="0"
     inkscape:window-maximized="1" />
  <g
     inkscape:label=" Slice 1"
     inkscape:groupmode="layer"
     id="layer1"
     style="display:inline">
    <rect
       style="fill:#000000;fill-opacity:1;stroke:#000000;stroke-width:0.46628261;stroke-miterlimit:4;stroke-dasharray:none;stroke-opacity:1"
       id="rect830"
       width="88.116386"
       height="88.116394"
       x="-0.38189787"
       y="89.29203" />
    <rect
       style="display:inline;fill:#000000;fill-opacity:1;stroke:#000000;stroke-width:0.46628261;stroke-miterlimit:4;stroke-dasharray:none;stroke-opacity:1"
       id="rect830-9"
       width="88.116386"
       height="88.116394"
       x="87.734489"
       y="177.40842" />
    <rect
       style="display:inline;fill:#000000;fill-opacity:1;stroke:#000000;stroke-width:0.46628261;stroke-miterlimit:4;stroke-dasharray:none;stroke-opacity:1"
       id="rect830-1"
       width="88.116386"
       height="88.116394"
       x="87.734489"
       y="1.1756363" />
    <rect
       style="display:inline;fill:#000000;fill-opacity:1;stroke:#000000;stroke-width:0.46628261;stroke-miterlimit:4;stroke-dasharray:none;stroke-opacity:1"
       id="rect830-2"
       width="88.116386"
       height="88.116394"
       x="175.85088"
       y="89.29203" />
    <rect
       style="display:inline;fill:#000000;fill-opacity:1;stroke:#000000;stroke-width:0.46628261;stroke-miterlimit:4;stroke-dasharray:none;stroke-opacity:1"
       id="rect830-7"
       width="88.116386"
       height="88.116394"
       x="175.85088"
       y="-86.94075" />
    <rect
       style="display:inline;fill:#000000;fill-opacity:1;stroke:#000000;stroke-width:0.46628261;stroke-miterlimit:4;stroke-dasharray:none;stroke-opacity:1"
       id="rect830-0"
       width="88.116386"
       height="88.116394"
       x="263.96725"
       y="1.1756439" />
    <rect
       style="display:inline;fill:#000000;fill-opacity:1;stroke:#000000;stroke-width:0.46628261;stroke-miterlimit:4;stroke-dasharray:none;stroke-opacity:1"
       id="rect830-93"
       width="88.116386"
       height="88.116394"
       x="263.96725"
       y="-175.05714" />
    <rect
       style="display:inline;fill:#000000;fill-opacity:1;stroke:#000000;stroke-width:0.46628261;stroke-miterlimit:4;stroke-dasharray:none;stroke-opacity:1"
       id="rect830-6"
       width="88.116386"
       height="88.116394"
       x="87.734497"
       y="-175.05714" />
    <path
       style="fill:#ec0000;fill-opacity:1;stroke:#f60000;stroke-width:1.06666672;stroke-opacity:1"
       d="M 56.693359 337.9668 L 55.810547 338.09375 L 53.291016 338.3457 L 50.142578 338.59766 L 46.865234 338.84961 L 37.96875 341.3418 L 37.96875 712.67383 L 46.865234 715.16406 L 49.007812 715.29102 L 50.142578 715.41602 L 55.810547 715.91992 L 56.693359 715.91992 L 66.646484 715.16406 L 76.09375 712.51953 L 78.740234 711.38477 L 81.511719 710 L 83.150391 709.24414 L 85.039062 708.36133 L 93.228516 702.69141 L 100.1582 695.76367 L 104.56641 689.46289 L 105.82617 687.69922 L 109.98438 678.62891 L 110.10938 678.125 L 112.63086 669.17969 L 112.75586 667.66797 L 114.14258 667.16406 L 141.73242 659.85742 L 153.32227 656.70703 L 155.96875 665.40039 L 159.87305 678.25195 L 160.63086 681.14844 L 162.01562 676.74023 L 166.92969 660.23438 L 169.32227 652.42383 L 171.7168 651.79492 L 172.84961 651.54297 L 173.60547 651.29102 L 175.36914 650.78711 L 176.25195 650.66016 L 179.52734 649.7793 L 181.66992 649.02344 L 182.17383 649.02344 L 190.48828 646.75586 L 196.53516 645.11719 L 197.92188 644.86523 L 203.08594 643.47852 L 204.2207 642.97461 L 204.84961 642.59766 L 210.14258 640.07812 L 211.15039 639.69922 L 217.70117 636.55078 L 218.58203 636.17188 L 220.72461 635.16406 L 222.61328 634.2832 L 224 633.40039 L 240.37891 621.93555 L 241.25977 620.92773 L 255.62109 606.69141 L 256 606.1875 L 260.78711 601.40039 L 263.43359 598.88086 L 271.24414 590.94336 L 273.51172 588.67578 L 276.66211 585.52734 L 279.68555 582.37695 L 288.63086 573.43164 L 292.53516 569.52734 L 294.55078 567.51172 L 298.58203 563.47852 L 304.25195 555.41602 L 307.15039 549.11719 L 308.41016 546.3457 L 311.05469 536.89648 L 311.05469 536.26758 L 312.69336 535.88867 L 331.8418 530.09375 L 341.41797 527.19531 L 342.04688 526.94336 L 341.66992 526.81836 L 336.50391 525.30664 L 310.92969 517.62109 L 311.05469 517.11719 L 308.41016 507.66797 L 307.15039 504.89648 L 304.25195 498.59766 L 298.58203 490.53516 L 294.17383 486.125 L 288.63086 480.58203 L 271.24414 463.07031 L 263.43359 455.13281 L 260.78711 452.61328 L 255.62109 447.32227 L 253.98438 445.68359 L 240.37891 432.07812 L 236.2207 429.30664 L 226.77148 422.62891 L 224 420.61328 L 223.62109 420.36133 L 222.61328 419.73047 L 220.72461 418.84961 L 217.70117 417.46289 L 217.32227 417.21094 L 215.18164 416.20312 L 207.74805 412.80273 L 203.08594 410.53516 L 202.58203 410.4082 L 197.92188 409.14844 L 196.53516 408.89648 L 193.25977 407.88867 L 188.97656 406.75586 L 186.45703 406.125 L 185.95312 406 L 182.92969 405.11719 L 182.17383 404.99219 L 179.90625 404.36133 L 179.52734 404.23438 L 179.52734 404.74023 L 179.52734 406.25195 L 179.52734 407.63672 L 179.52734 417.21094 L 179.6543 419.60547 L 179.52734 427.03906 L 179.52734 437.36914 L 179.52734 440.89648 L 179.52734 444.67578 L 179.52734 445.93555 L 179.52734 449.33789 L 179.52734 450.84961 L 179.52734 458.91211 L 179.52734 459.66797 L 179.52734 473.40039 L 179.52734 475.03906 L 179.52734 475.79492 L 179.52734 476.55078 L 179.52734 478.1875 L 179.52734 479.69922 L 179.6543 483.35352 L 179.52734 484.36133 L 179.6543 488.89648 L 182.92969 488.89648 L 185.32227 488.89648 L 189.60547 488.89648 L 192.63086 488.89648 L 195.7793 488.89648 L 198.80273 488.89648 L 198.80273 495.07031 L 198.80273 500.86523 L 198.80273 503.51172 L 198.80273 505.02344 L 198.80273 511.69922 L 198.80273 513.21094 L 198.80273 518 L 198.80273 520.26758 L 198.80273 523.29102 L 198.80273 526.94336 L 198.80273 533.74805 L 198.80273 538.66016 L 198.80273 540.80273 L 198.80273 547.10156 L 198.80273 548.99219 L 198.80273 550.50391 L 198.80273 554.2832 L 198.80273 556.92773 L 198.80273 558.94336 L 198.80273 564.36133 L 198.80273 570.03125 L 198.80273 572.42383 L 198.80273 585.14844 L 198.80273 592.95898 L 198.80273 620.92773 L 198.80273 622.69141 L 198.80273 626.59766 L 198.80273 627.22656 L 198.80273 631.63672 L 198.80273 634.66016 L 198.80273 640.07812 L 198.29883 640.07812 L 196.1582 640.07812 L 188.09375 640.07812 L 185.82617 640.07812 L 182.55078 640.07812 L 180.66211 640.07812 L 179.52734 640.07812 L 179.15039 640.07812 L 176.37891 640.07812 L 175.87305 640.07812 L 172.97656 640.07812 L 170.83398 640.07812 L 169.57422 640.07812 L 166.29883 640.07812 L 162.01562 640.07812 L 160.63086 640.07812 L 148.41016 640.07812 L 141.73242 640.07812 L 140.72461 640.07812 L 122.58203 640.07812 L 122.58203 635.29102 L 122.58203 631.63672 L 122.58203 625.21094 L 122.58203 620.92773 L 122.58203 612.23438 L 122.58203 601.40039 L 122.58203 598 L 122.58203 592.95898 L 122.58203 577.08594 L 122.58203 572.42383 L 122.58203 570.15625 L 122.58203 567.76367 L 122.58203 564.36133 L 122.58203 563.35352 L 122.58203 562.21875 L 122.58203 559.07031 L 122.58203 555.29102 L 122.58203 554.2832 L 122.58203 548.99219 L 122.58203 546.97461 L 122.58203 542.31445 L 122.58203 540.80273 L 122.58203 540.04688 L 122.58203 539.16406 L 122.58203 538.4082 L 122.58203 533.74805 L 122.58203 532.10938 L 122.58203 528.20312 L 122.58203 526.94336 L 122.58203 525.55859 L 122.58203 521.9043 L 122.58203 520.26758 L 122.58203 518.75586 L 122.58203 518 L 122.58203 514.84961 L 122.58203 513.9668 L 122.58203 513.21094 L 122.58203 511.69922 L 122.58203 507.03906 L 122.58203 505.40039 L 122.58203 505.02344 L 122.58203 502.25195 L 122.58203 498.72266 L 122.58203 494.94336 L 122.58203 491.79492 L 122.58203 488.89648 L 124.3457 488.89648 L 128.75586 488.89648 L 130.26758 488.89648 L 133.16602 488.89648 L 138.70898 488.89648 L 140.59766 488.89648 L 141.73242 488.89648 L 141.73242 486.62891 L 141.73242 478.81836 L 141.73242 477.30664 L 141.73242 475.79492 L 141.73242 475.03906 L 141.73242 470.37695 L 141.73242 466.84961 L 141.73242 466.3457 L 141.73242 465.46289 L 141.73242 433.58984 L 141.73242 419.85742 L 141.73242 417.21094 L 141.73242 404.74023 L 141.73242 404.23438 L 141.73242 402.97461 L 141.73242 402.59766 L 141.73242 400.83398 L 141.73242 399.95117 L 141.73242 399.57422 L 141.73242 394.15625 L 136.94531 392.89648 L 134.04688 392.14062 L 123.7168 389.36914 L 121.57422 388.86523 L 120.69336 388.61328 L 115.52734 387.22656 L 114.14258 386.84961 L 112.75586 386.4707 L 112.63086 384.83398 L 111.74805 381.68359 L 109.98438 375.38477 L 106.83398 368.45508 L 105.82617 366.31445 L 102.04688 360.89648 L 100.1582 358.25195 L 94.865234 352.95898 L 93.228516 351.32227 L 85.039062 345.65234 L 81.890625 344.14062 L 81.511719 344.01562 L 78.740234 342.62891 L 77.605469 342.125 L 76.09375 341.49609 L 66.646484 338.84961 L 57.826172 338.09375 L 56.693359 337.9668 z "
       transform="matrix(0.93749998,0,0,0.93749998,-150.70866,-494.00999)"
       id="line8" />
    <rect
       style="display:inline;fill:#000000;fill-opacity:1;stroke:#000000;stroke-width:0.46628261;stroke-miterlimit:4;stroke-dasharray:none;stroke-opacity:1"
       id="rect830-06"
       width="88.116386"
       height="88.116394"
       x="175.85088"
       y="-263.17355" />
    <rect
       style="display:inline;fill:#000000;fill-opacity:1;stroke:#000000;stroke-width:0.46628261;stroke-miterlimit:4;stroke-dasharray:none;stroke-opacity:1"
       id="rect830-26"
       width="88.116386"
       height="88.116394"
       x="352.08365"
       y="-86.94075" />
    <rect
       style="display:inline;fill:#000000;fill-opacity:1;stroke:#000000;stroke-width:0.46628261;stroke-miterlimit:4;stroke-dasharray:none;stroke-opacity:1"
       id="rect830-18"
       width="88.116386"
       height="88.116394"
       x="352.08365"
       y="89.292038" />
    <rect
       style="display:inline;fill:#000000;fill-opacity:1;stroke:#000000;stroke-width:0.46628261;stroke-miterlimit:4;stroke-dasharray:none;stroke-opacity:1"
       id="rect830-79"
       width="88.116386"
       height="88.116394"
       x="263.96725"
       y="177.40842" />
    <rect
       style="display:inline;fill:#000000;fill-opacity:1;stroke:#000000;stroke-width:0.46628261;stroke-miterlimit:4;stroke-dasharray:none;stroke-opacity:1"
       id="rect830-20"
       width="88.116386"
       height="88.116394"
       x="175.85088"
       y="265.52481" />
    <rect
       style="display:inline;fill:#000000;fill-opacity:1;stroke:#000000;stroke-width:0.46628261;stroke-miterlimit:4;stroke-dasharray:none;stroke-opacity:1"
       id="rect830-23"
       width="88.116386"
       height="88.116394"
       x="352.08365"
       y="265.52481" />
    <rect
       style="display:inline;fill:#000000;fill-opacity:1;stroke:#000000;stroke-width:0.46628261;stroke-miterlimit:4;stroke-dasharray:none;stroke-opacity:1"
       id="rect830-75"
       width="88.116386"
       height="88.116394"
       x="352.08365"
       y="-263.17355" />
    <rect
       style="display:inline;fill:#000000;fill-opacity:1;stroke:#000000;stroke-width:0.46628261;stroke-miterlimit:4;stroke-dasharray:none;stroke-opacity:1"
       id="rect830-92"
       width="88.116386"
       height="88.116394"
       x="440.20004"
       y="-351.28995" />
    <rect
       style="display:inline;fill:#000000;fill-opacity:1;stroke:#000000;stroke-width:0.46628261;stroke-miterlimit:4;stroke-dasharray:none;stroke-opacity:1"
       id="rect830-28"
       width="88.116386"
       height="88.116394"
       x="352.08368"
       y="-439.40634" />
    <rect
       style="display:inline;fill:#000000;fill-opacity:1;stroke:#000000;stroke-width:0.46628261;stroke-miterlimit:4;stroke-dasharray:none;stroke-opacity:1"
       id="rect830-97"
       width="88.116386"
       height="88.116394"
       x="440.20004"
       y="-175.05714" />
    <rect
       style="display:inline;fill:#000000;fill-opacity:1;stroke:#000000;stroke-width:0.46628261;stroke-miterlimit:4;stroke-dasharray:none;stroke-opacity:1"
       id="rect830-3"
       width="88.116386"
       height="88.116394"
       x="440.20004"
       y="1.1756439" />
    <rect
       style="display:inline;fill:#000000;fill-opacity:1;stroke:#000000;stroke-width:0.46628261;stroke-miterlimit:4;stroke-dasharray:none;stroke-opacity:1"
       id="rect830-61"
       width="88.116386"
       height="88.116394"
       x="440.20004"
       y="177.40842" />
    <rect
       style="display:inline;fill:#000000;fill-opacity:1;stroke:#000000;stroke-width:0.46628261;stroke-miterlimit:4;stroke-dasharray:none;stroke-opacity:1"
       id="rect830-29"
       width="88.116386"
       height="88.116394"
       x="263.96732"
       y="-351.28995" />
    <rect
       style="display:inline;fill:#000000;fill-opacity:1;stroke:#000000;stroke-width:0.46628261;stroke-miterlimit:4;stroke-dasharray:none;stroke-opacity:1"
       id="rect830-31"
       width="88.116386"
       height="88.116394"
       x="175.85092"
       y="-439.40634" />
    <rect
       style="display:inline;fill:#000000;fill-opacity:1;stroke:#000000;stroke-width:0.46628261;stroke-miterlimit:4;stroke-dasharray:none;stroke-opacity:1"
       id="rect830-94"
       width="88.116386"
       height="88.116394"
       x="87.734535"
       y="-351.28995" />
    <rect
       style="display:inline;fill:#000000;fill-opacity:1;stroke:#000000;stroke-width:0.46628261;stroke-miterlimit:4;stroke-dasharray:none;stroke-opacity:1"
       id="rect830-78"
       width="88.116386"
       height="88.116394"
       x="-0.38185883"
       y="-439.40634" />
    <rect
       style="display:inline;fill:#000000;fill-opacity:1;stroke:#000000;stroke-width:0.46628261;stroke-miterlimit:4;stroke-dasharray:none;stroke-opacity:1"
       id="rect830-4"
       width="88.116386"
       height="88.116394"
       x="-0.38189268"
       y="-263.17352" />
    <rect
       style="display:inline;fill:#000000;fill-opacity:1;stroke:#000000;stroke-width:0.46628261;stroke-miterlimit:4;stroke-dasharray:none;stroke-opacity:1"
       id="rect830-5"
       width="88.116386"
       height="88.116394"
       x="-88.498245"
       y="-351.28995" />
    <rect
       style="display:inline;fill:#000000;fill-opacity:1;stroke:#000000;stroke-width:0.46628261;stroke-miterlimit:4;stroke-dasharray:none;stroke-opacity:1"
       id="rect830-03"
       width="88.116386"
       height="88.116394"
       x="440.20004"
       y="353.6412" />
    <rect
       style="display:inline;fill:#000000;fill-opacity:1;stroke:#000000;stroke-width:0.46628261;stroke-miterlimit:4;stroke-dasharray:none;stroke-opacity:1"
       id="rect830-610"
       width="88.116386"
       height="88.116394"
       x="263.96725"
       y="353.6412" />
    <rect
       style="display:inline;fill:#000000;fill-opacity:1;stroke:#000000;stroke-width:0.46628261;stroke-miterlimit:4;stroke-dasharray:none;stroke-opacity:1"
       id="rect830-63"
       width="88.116386"
       height="88.116394"
       x="87.734497"
       y="353.6412" />
    <rect
       style="display:inline;fill:#000000;fill-opacity:1;stroke:#000000;stroke-width:0.46628261;stroke-miterlimit:4;stroke-dasharray:none;stroke-opacity:1"
       id="rect830-206"
       width="88.116386"
       height="88.116394"
       x="-0.38188934"
       y="265.52481" />
    <rect
       style="display:inline;fill:#000000;fill-opacity:1;stroke:#000000;stroke-width:0.46628261;stroke-miterlimit:4;stroke-dasharray:none;stroke-opacity:1"
       id="rect830-15"
       width="88.116386"
       height="88.116394"
       x="-88.498276"
       y="353.6412" />
    <rect
       style="display:inline;fill:#000000;fill-opacity:1;stroke:#000000;stroke-width:0.46628261;stroke-miterlimit:4;stroke-dasharray:none;stroke-opacity:1"
       id="rect830-54"
       width="88.116386"
       height="88.116394"
       x="-88.498276"
       y="177.40842" />
  </g>
</svg>
